<mxfile host="app.diagrams.net" modified="2022-01-06T03:06:42.535Z" agent="5.0 (Macintosh; Intel Mac OS X 10_15_7) AppleWebKit/537.36 (KHTML, like Gecko) Chrome/97.0.4692.71 Safari/537.36" etag="uQ8J9vsz2r1C--2YUWLw" version="16.2.1" type="github">
  <diagram id="UukSEk4Vx-OJ-TLTvmII" name="第 1 页">
    <mxGraphModel dx="3153" dy="2047" grid="1" gridSize="10" guides="1" tooltips="1" connect="1" arrows="1" fold="1" page="1" pageScale="1" pageWidth="3300" pageHeight="4681" math="0" shadow="0">
      <root>
        <mxCell id="0" />
        <mxCell id="1" parent="0" />
        <mxCell id="u4I7CA3MxaDfeZdkPv-0-1" value="&lt;font style=&quot;font-size: 18px&quot;&gt;nameSever&lt;/font&gt;" style="rounded=1;whiteSpace=wrap;html=1;strokeWidth=2;fillWeight=4;hachureGap=8;hachureAngle=45;fillColor=#dae8fc;sketch=1;strokeColor=#6c8ebf;" vertex="1" parent="1">
          <mxGeometry x="980" y="660" width="120" height="60" as="geometry" />
        </mxCell>
        <mxCell id="u4I7CA3MxaDfeZdkPv-0-2" style="edgeStyle=orthogonalEdgeStyle;rounded=0;orthogonalLoop=1;jettySize=auto;html=1;exitX=0;exitY=0.5;exitDx=0;exitDy=0;entryX=0.5;entryY=0;entryDx=0;entryDy=0;fontSize=18;strokeColor=#999900;shape=flexArrow;" edge="1" parent="1" source="u4I7CA3MxaDfeZdkPv-0-4" target="u4I7CA3MxaDfeZdkPv-0-32">
          <mxGeometry relative="1" as="geometry" />
        </mxCell>
        <mxCell id="u4I7CA3MxaDfeZdkPv-0-3" value="拉取路由信息" style="edgeLabel;html=1;align=center;verticalAlign=middle;resizable=0;points=[];fontSize=18;" vertex="1" connectable="0" parent="u4I7CA3MxaDfeZdkPv-0-2">
          <mxGeometry x="0.5245" y="2" relative="1" as="geometry">
            <mxPoint y="-1" as="offset" />
          </mxGeometry>
        </mxCell>
        <mxCell id="u4I7CA3MxaDfeZdkPv-0-4" value="&lt;font style=&quot;font-size: 18px&quot;&gt;nameSever&lt;/font&gt;" style="rounded=1;whiteSpace=wrap;html=1;strokeWidth=2;fillWeight=4;hachureGap=8;hachureAngle=45;fillColor=#dae8fc;sketch=1;strokeColor=#6c8ebf;" vertex="1" parent="1">
          <mxGeometry x="730" y="660" width="120" height="60" as="geometry" />
        </mxCell>
        <mxCell id="u4I7CA3MxaDfeZdkPv-0-5" style="edgeStyle=orthogonalEdgeStyle;rounded=0;orthogonalLoop=1;jettySize=auto;html=1;exitX=1;exitY=0.5;exitDx=0;exitDy=0;entryX=0.5;entryY=0;entryDx=0;entryDy=0;fontSize=18;strokeColor=#999900;shape=flexArrow;" edge="1" parent="1" source="u4I7CA3MxaDfeZdkPv-0-7" target="u4I7CA3MxaDfeZdkPv-0-34">
          <mxGeometry relative="1" as="geometry" />
        </mxCell>
        <mxCell id="u4I7CA3MxaDfeZdkPv-0-6" value="拉取路由信息" style="edgeLabel;html=1;align=center;verticalAlign=middle;resizable=0;points=[];fontSize=18;" vertex="1" connectable="0" parent="u4I7CA3MxaDfeZdkPv-0-5">
          <mxGeometry x="0.3351" y="-2" relative="1" as="geometry">
            <mxPoint x="2" y="40" as="offset" />
          </mxGeometry>
        </mxCell>
        <mxCell id="u4I7CA3MxaDfeZdkPv-0-7" value="&lt;font style=&quot;font-size: 18px&quot;&gt;nameSever&lt;/font&gt;" style="rounded=1;whiteSpace=wrap;html=1;strokeWidth=2;fillWeight=4;hachureGap=8;hachureAngle=45;fillColor=#dae8fc;sketch=1;strokeColor=#6c8ebf;" vertex="1" parent="1">
          <mxGeometry x="1220" y="660" width="120" height="60" as="geometry" />
        </mxCell>
        <mxCell id="u4I7CA3MxaDfeZdkPv-0-8" value="" style="edgeStyle=orthogonalEdgeStyle;rounded=0;orthogonalLoop=1;jettySize=auto;html=1;fontSize=18;strokeColor=#82b366;exitX=0.5;exitY=1;exitDx=0;exitDy=0;fillColor=#d5e8d4;" edge="1" parent="1" source="u4I7CA3MxaDfeZdkPv-0-21" target="u4I7CA3MxaDfeZdkPv-0-22">
          <mxGeometry relative="1" as="geometry" />
        </mxCell>
        <mxCell id="u4I7CA3MxaDfeZdkPv-0-9" value="同步" style="edgeLabel;html=1;align=center;verticalAlign=middle;resizable=0;points=[];fontSize=18;" vertex="1" connectable="0" parent="u4I7CA3MxaDfeZdkPv-0-8">
          <mxGeometry x="0.0545" relative="1" as="geometry">
            <mxPoint as="offset" />
          </mxGeometry>
        </mxCell>
        <mxCell id="u4I7CA3MxaDfeZdkPv-0-10" value="" style="edgeStyle=orthogonalEdgeStyle;rounded=0;orthogonalLoop=1;jettySize=auto;html=1;fontSize=18;strokeColor=#82b366;fillColor=#d5e8d4;" edge="1" parent="1" source="u4I7CA3MxaDfeZdkPv-0-21" target="u4I7CA3MxaDfeZdkPv-0-25">
          <mxGeometry relative="1" as="geometry" />
        </mxCell>
        <mxCell id="u4I7CA3MxaDfeZdkPv-0-11" value="同步" style="edgeLabel;html=1;align=center;verticalAlign=middle;resizable=0;points=[];fontSize=18;" vertex="1" connectable="0" parent="u4I7CA3MxaDfeZdkPv-0-10">
          <mxGeometry x="-0.0182" y="-6" relative="1" as="geometry">
            <mxPoint y="-6" as="offset" />
          </mxGeometry>
        </mxCell>
        <mxCell id="u4I7CA3MxaDfeZdkPv-0-12" style="edgeStyle=orthogonalEdgeStyle;rounded=0;orthogonalLoop=1;jettySize=auto;html=1;entryX=0.5;entryY=1;entryDx=0;entryDy=0;fontSize=18;strokeColor=#FF0000;" edge="1" parent="1" target="u4I7CA3MxaDfeZdkPv-0-7">
          <mxGeometry relative="1" as="geometry">
            <mxPoint x="1040" y="840" as="sourcePoint" />
            <Array as="points">
              <mxPoint x="1040" y="810" />
              <mxPoint x="1280" y="810" />
            </Array>
          </mxGeometry>
        </mxCell>
        <mxCell id="u4I7CA3MxaDfeZdkPv-0-13" value="注册" style="edgeLabel;html=1;align=center;verticalAlign=middle;resizable=0;points=[];fontSize=12;" vertex="1" connectable="0" parent="u4I7CA3MxaDfeZdkPv-0-12">
          <mxGeometry x="0.2286" y="-1" relative="1" as="geometry">
            <mxPoint as="offset" />
          </mxGeometry>
        </mxCell>
        <mxCell id="u4I7CA3MxaDfeZdkPv-0-14" style="edgeStyle=orthogonalEdgeStyle;rounded=0;orthogonalLoop=1;jettySize=auto;html=1;exitX=0.5;exitY=0;exitDx=0;exitDy=0;entryX=0.5;entryY=1;entryDx=0;entryDy=0;fontSize=18;strokeColor=#FF0000;" edge="1" parent="1" source="u4I7CA3MxaDfeZdkPv-0-21" target="u4I7CA3MxaDfeZdkPv-0-1">
          <mxGeometry relative="1" as="geometry" />
        </mxCell>
        <mxCell id="u4I7CA3MxaDfeZdkPv-0-15" value="&lt;font style=&quot;font-size: 12px&quot;&gt;长连接&lt;br&gt;30s一次心跳&lt;/font&gt;" style="edgeLabel;html=1;align=center;verticalAlign=middle;resizable=0;points=[];fontSize=18;" vertex="1" connectable="0" parent="u4I7CA3MxaDfeZdkPv-0-14">
          <mxGeometry x="0.4857" relative="1" as="geometry">
            <mxPoint y="7" as="offset" />
          </mxGeometry>
        </mxCell>
        <mxCell id="u4I7CA3MxaDfeZdkPv-0-16" value="注册" style="edgeLabel;html=1;align=center;verticalAlign=middle;resizable=0;points=[];fontSize=12;" vertex="1" connectable="0" parent="u4I7CA3MxaDfeZdkPv-0-14">
          <mxGeometry x="-0.578" relative="1" as="geometry">
            <mxPoint y="-23" as="offset" />
          </mxGeometry>
        </mxCell>
        <mxCell id="u4I7CA3MxaDfeZdkPv-0-17" style="edgeStyle=orthogonalEdgeStyle;rounded=0;orthogonalLoop=1;jettySize=auto;html=1;exitX=0.5;exitY=0;exitDx=0;exitDy=0;entryX=0.5;entryY=1;entryDx=0;entryDy=0;fontSize=18;strokeColor=#FF0000;" edge="1" parent="1" source="u4I7CA3MxaDfeZdkPv-0-21" target="u4I7CA3MxaDfeZdkPv-0-4">
          <mxGeometry relative="1" as="geometry">
            <Array as="points">
              <mxPoint x="1040" y="810" />
              <mxPoint x="790" y="810" />
            </Array>
          </mxGeometry>
        </mxCell>
        <mxCell id="u4I7CA3MxaDfeZdkPv-0-18" value="注册" style="edgeLabel;html=1;align=center;verticalAlign=middle;resizable=0;points=[];fontSize=12;" vertex="1" connectable="0" parent="u4I7CA3MxaDfeZdkPv-0-17">
          <mxGeometry x="0.2457" y="-2" relative="1" as="geometry">
            <mxPoint y="-1" as="offset" />
          </mxGeometry>
        </mxCell>
        <mxCell id="u4I7CA3MxaDfeZdkPv-0-19" style="edgeStyle=orthogonalEdgeStyle;rounded=0;orthogonalLoop=1;jettySize=auto;html=1;exitX=1;exitY=0.5;exitDx=0;exitDy=0;entryX=0;entryY=0.5;entryDx=0;entryDy=0;fontSize=18;strokeColor=#0000FF;" edge="1" parent="1" source="u4I7CA3MxaDfeZdkPv-0-21" target="u4I7CA3MxaDfeZdkPv-0-34">
          <mxGeometry relative="1" as="geometry" />
        </mxCell>
        <mxCell id="u4I7CA3MxaDfeZdkPv-0-20" value="长连接获取消息" style="edgeLabel;html=1;align=center;verticalAlign=middle;resizable=0;points=[];fontSize=18;" vertex="1" connectable="0" parent="u4I7CA3MxaDfeZdkPv-0-19">
          <mxGeometry x="-0.0306" y="4" relative="1" as="geometry">
            <mxPoint x="71" y="4" as="offset" />
          </mxGeometry>
        </mxCell>
        <mxCell id="u4I7CA3MxaDfeZdkPv-0-21" value="Master Broker" style="whiteSpace=wrap;html=1;fontSize=18;fillColor=#d5e8d4;strokeWidth=2;fillWeight=-1;hachureGap=8;fillStyle=cross-hatch;sketch=1;strokeColor=#82b366;" vertex="1" parent="1">
          <mxGeometry x="980" y="850" width="120" height="60" as="geometry" />
        </mxCell>
        <mxCell id="u4I7CA3MxaDfeZdkPv-0-22" value="&lt;span&gt;Slave Borker&lt;/span&gt;" style="rounded=1;whiteSpace=wrap;html=1;fontSize=18;fillColor=#d5e8d4;strokeColor=#82b366;strokeWidth=2;fillWeight=-1;hachureGap=8;fillStyle=cross-hatch;sketch=1;" vertex="1" parent="1">
          <mxGeometry x="860" y="1010" width="120" height="60" as="geometry" />
        </mxCell>
        <mxCell id="u4I7CA3MxaDfeZdkPv-0-23" style="edgeStyle=orthogonalEdgeStyle;rounded=0;orthogonalLoop=1;jettySize=auto;html=1;exitX=1;exitY=0.5;exitDx=0;exitDy=0;entryX=0;entryY=0.5;entryDx=0;entryDy=0;fontSize=18;strokeColor=#0000FF;" edge="1" parent="1" source="u4I7CA3MxaDfeZdkPv-0-25" target="u4I7CA3MxaDfeZdkPv-0-35">
          <mxGeometry relative="1" as="geometry" />
        </mxCell>
        <mxCell id="u4I7CA3MxaDfeZdkPv-0-24" value="长连接获取消息" style="edgeLabel;html=1;align=center;verticalAlign=middle;resizable=0;points=[];fontSize=18;" vertex="1" connectable="0" parent="u4I7CA3MxaDfeZdkPv-0-23">
          <mxGeometry x="-0.2364" y="4" relative="1" as="geometry">
            <mxPoint x="33" y="4" as="offset" />
          </mxGeometry>
        </mxCell>
        <mxCell id="u4I7CA3MxaDfeZdkPv-0-25" value="&lt;span&gt;Slave Borker&lt;/span&gt;" style="rounded=1;whiteSpace=wrap;html=1;fontSize=18;fillColor=#d5e8d4;strokeColor=#82b366;strokeWidth=2;fillWeight=-1;hachureGap=8;fillStyle=cross-hatch;sketch=1;" vertex="1" parent="1">
          <mxGeometry x="1100" y="1010" width="120" height="60" as="geometry" />
        </mxCell>
        <mxCell id="u4I7CA3MxaDfeZdkPv-0-26" value="&lt;font style=&quot;font-size: 12px&quot;&gt;长连接&lt;br&gt;30s一次心跳&lt;/font&gt;" style="edgeLabel;html=1;align=center;verticalAlign=middle;resizable=0;points=[];fontSize=18;" vertex="1" connectable="0" parent="1">
          <mxGeometry x="790" y="770" as="geometry" />
        </mxCell>
        <mxCell id="u4I7CA3MxaDfeZdkPv-0-27" value="&lt;font style=&quot;font-size: 12px&quot;&gt;长连接&lt;br&gt;30s一次心跳&lt;/font&gt;" style="edgeLabel;html=1;align=center;verticalAlign=middle;resizable=0;points=[];fontSize=18;" vertex="1" connectable="0" parent="1">
          <mxGeometry x="1100" y="780" as="geometry">
            <mxPoint x="176" y="-2" as="offset" />
          </mxGeometry>
        </mxCell>
        <mxCell id="u4I7CA3MxaDfeZdkPv-0-28" value="" style="curved=1;endArrow=classic;html=1;rounded=0;fontSize=12;strokeColor=#FF0000;exitX=1;exitY=0.5;exitDx=0;exitDy=0;" edge="1" parent="1" source="u4I7CA3MxaDfeZdkPv-0-25">
          <mxGeometry width="50" height="50" relative="1" as="geometry">
            <mxPoint x="1200" y="950" as="sourcePoint" />
            <mxPoint x="1040" y="820" as="targetPoint" />
            <Array as="points">
              <mxPoint x="1250" y="950" />
              <mxPoint x="1200" y="840" />
            </Array>
          </mxGeometry>
        </mxCell>
        <mxCell id="u4I7CA3MxaDfeZdkPv-0-29" value="" style="curved=1;endArrow=classic;html=1;rounded=0;fontSize=12;strokeColor=#FF0000;exitX=0;exitY=0.5;exitDx=0;exitDy=0;" edge="1" parent="1" source="u4I7CA3MxaDfeZdkPv-0-22">
          <mxGeometry width="50" height="50" relative="1" as="geometry">
            <mxPoint x="835" y="940" as="sourcePoint" />
            <mxPoint x="1040" y="820" as="targetPoint" />
            <Array as="points">
              <mxPoint x="830" y="1020" />
              <mxPoint x="835" y="890" />
              <mxPoint x="930" y="830" />
            </Array>
          </mxGeometry>
        </mxCell>
        <mxCell id="u4I7CA3MxaDfeZdkPv-0-30" style="edgeStyle=orthogonalEdgeStyle;rounded=0;orthogonalLoop=1;jettySize=auto;html=1;exitX=1;exitY=0.5;exitDx=0;exitDy=0;entryX=0;entryY=0.5;entryDx=0;entryDy=0;fontSize=18;strokeColor=#0000FF;" edge="1" parent="1" source="u4I7CA3MxaDfeZdkPv-0-32" target="u4I7CA3MxaDfeZdkPv-0-21">
          <mxGeometry relative="1" as="geometry" />
        </mxCell>
        <mxCell id="u4I7CA3MxaDfeZdkPv-0-31" value="长连接发送消息" style="edgeLabel;html=1;align=center;verticalAlign=middle;resizable=0;points=[];fontSize=18;" vertex="1" connectable="0" parent="u4I7CA3MxaDfeZdkPv-0-30">
          <mxGeometry x="-0.3021" y="-4" relative="1" as="geometry">
            <mxPoint x="-32" y="-4" as="offset" />
          </mxGeometry>
        </mxCell>
        <mxCell id="u4I7CA3MxaDfeZdkPv-0-32" value="&lt;font style=&quot;font-size: 18px&quot;&gt;&lt;b&gt;生产者&lt;/b&gt;&lt;/font&gt;" style="rounded=1;whiteSpace=wrap;html=1;fillColor=#f8cecc;strokeWidth=2;fillWeight=2;hachureGap=8;fillStyle=dots;sketch=1;strokeColor=#b85450;" vertex="1" parent="1">
          <mxGeometry x="495" y="850" width="120" height="60" as="geometry" />
        </mxCell>
        <mxCell id="u4I7CA3MxaDfeZdkPv-0-33" value="&lt;font style=&quot;font-size: 18px&quot;&gt;&lt;b&gt;生产者&lt;/b&gt;&lt;/font&gt;" style="rounded=1;whiteSpace=wrap;html=1;fillColor=#f8cecc;strokeWidth=2;fillWeight=2;hachureGap=8;fillStyle=dots;sketch=1;strokeColor=#b85450;arcSize=0;" vertex="1" parent="1">
          <mxGeometry x="495" y="1010" width="120" height="60" as="geometry" />
        </mxCell>
        <mxCell id="u4I7CA3MxaDfeZdkPv-0-34" value="&lt;font style=&quot;font-size: 18px&quot;&gt;&lt;b&gt;消费者&lt;/b&gt;&lt;/font&gt;" style="rounded=1;whiteSpace=wrap;html=1;fillColor=#f8cecc;strokeWidth=2;fillWeight=2;hachureGap=8;fillStyle=dots;sketch=1;strokeColor=#b85450;" vertex="1" parent="1">
          <mxGeometry x="1450" y="850" width="120" height="60" as="geometry" />
        </mxCell>
        <mxCell id="u4I7CA3MxaDfeZdkPv-0-35" value="&lt;font style=&quot;font-size: 18px&quot;&gt;&lt;b&gt;消费者&lt;/b&gt;&lt;/font&gt;" style="rounded=1;whiteSpace=wrap;html=1;fillColor=#f8cecc;strokeWidth=2;fillWeight=2;hachureGap=8;fillStyle=dots;sketch=1;strokeColor=#b85450;" vertex="1" parent="1">
          <mxGeometry x="1450" y="1010" width="120" height="60" as="geometry" />
        </mxCell>
        <mxCell id="u4I7CA3MxaDfeZdkPv-0-36" style="edgeStyle=orthogonalEdgeStyle;rounded=0;orthogonalLoop=1;jettySize=auto;html=1;exitX=1;exitY=0.5;exitDx=0;exitDy=0;entryX=0;entryY=0.5;entryDx=0;entryDy=0;fontSize=18;strokeColor=#0000FF;" edge="1" parent="1" source="u4I7CA3MxaDfeZdkPv-0-33" target="u4I7CA3MxaDfeZdkPv-0-21">
          <mxGeometry relative="1" as="geometry">
            <mxPoint x="615" y="1019.0900000000001" as="sourcePoint" />
            <mxPoint x="980" y="1019.0900000000001" as="targetPoint" />
            <Array as="points">
              <mxPoint x="800" y="1040" />
              <mxPoint x="800" y="880" />
            </Array>
          </mxGeometry>
        </mxCell>
        <mxCell id="u4I7CA3MxaDfeZdkPv-0-37" value="长连接发送消息" style="edgeLabel;html=1;align=center;verticalAlign=middle;resizable=0;points=[];fontSize=18;" vertex="1" connectable="0" parent="u4I7CA3MxaDfeZdkPv-0-36">
          <mxGeometry x="-0.3021" y="-4" relative="1" as="geometry">
            <mxPoint x="-81" y="-3" as="offset" />
          </mxGeometry>
        </mxCell>
        <mxCell id="u4I7CA3MxaDfeZdkPv-0-38" value="发送消息只能发master" style="text;html=1;align=center;verticalAlign=middle;resizable=0;points=[];autosize=1;strokeColor=none;fillColor=none;fontSize=18;" vertex="1" parent="1">
          <mxGeometry x="270" y="950" width="200" height="30" as="geometry" />
        </mxCell>
        <mxCell id="u4I7CA3MxaDfeZdkPv-0-39" value="" style="shape=curlyBracket;whiteSpace=wrap;html=1;rounded=1;fontSize=18;" vertex="1" parent="1">
          <mxGeometry x="470" y="865" width="20" height="200" as="geometry" />
        </mxCell>
        <mxCell id="u4I7CA3MxaDfeZdkPv-0-40" value="" style="shape=curlyBracket;whiteSpace=wrap;html=1;rounded=1;flipH=1;fontSize=18;" vertex="1" parent="1">
          <mxGeometry x="1574" y="875" width="20" height="180" as="geometry" />
        </mxCell>
        <mxCell id="u4I7CA3MxaDfeZdkPv-0-41" value="获取消息master和slave都可以" style="text;html=1;align=center;verticalAlign=middle;resizable=0;points=[];autosize=1;strokeColor=none;fillColor=none;fontSize=18;" vertex="1" parent="1">
          <mxGeometry x="1594" y="950" width="260" height="30" as="geometry" />
        </mxCell>
        <mxCell id="u4I7CA3MxaDfeZdkPv-0-42" value="" style="shape=curlyBracket;whiteSpace=wrap;html=1;rounded=1;fontSize=18;rotation=90;" vertex="1" parent="1">
          <mxGeometry x="1000" y="370" width="55" height="510" as="geometry" />
        </mxCell>
        <mxCell id="u4I7CA3MxaDfeZdkPv-0-43" value="&lt;meta charset=&quot;utf-8&quot;&gt;&lt;span style=&quot;color: rgb(0, 0, 0); font-family: helvetica; font-size: 18px; font-style: normal; font-weight: 400; letter-spacing: normal; text-align: center; text-indent: 0px; text-transform: none; word-spacing: 0px; background-color: rgb(255, 255, 255); display: inline; float: none;&quot;&gt;每个broker启动需要向所有nameServer注册&lt;/span&gt;" style="text;whiteSpace=wrap;html=1;fontSize=18;" vertex="1" parent="1">
          <mxGeometry x="860" y="440" width="370" height="40" as="geometry" />
        </mxCell>
        <mxCell id="u4I7CA3MxaDfeZdkPv-0-44" value="每30s心跳，超过120s则认为挂了，心跳时broker会汇报自己的数据情况" style="edgeLabel;html=1;align=center;verticalAlign=middle;resizable=0;points=[];fontSize=18;" vertex="1" connectable="0" parent="1">
          <mxGeometry x="1020.0011111111103" y="509.9977777777774" as="geometry" />
        </mxCell>
        <mxCell id="u4I7CA3MxaDfeZdkPv-0-45" value="拉取路由信息时nameServer会根据各broker的数据情况来负载均衡选一个broker，建立长连接" style="text;html=1;align=center;verticalAlign=middle;resizable=0;points=[];autosize=1;strokeColor=none;fillColor=none;fontSize=18;" vertex="1" parent="1">
          <mxGeometry x="660" y="550" width="760" height="30" as="geometry" />
        </mxCell>
        <mxCell id="u4I7CA3MxaDfeZdkPv-0-46" value="" style="shape=curlyBracket;whiteSpace=wrap;html=1;rounded=1;flipH=1;fontSize=18;rotation=90;" vertex="1" parent="1">
          <mxGeometry x="1015" y="990" width="50" height="245" as="geometry" />
        </mxCell>
        <mxCell id="u4I7CA3MxaDfeZdkPv-0-47" value="通过deloger实现master选举和自启动" style="text;html=1;align=center;verticalAlign=middle;resizable=0;points=[];autosize=1;strokeColor=none;fillColor=none;fontSize=18;" vertex="1" parent="1">
          <mxGeometry x="872.5" y="1160" width="310" height="30" as="geometry" />
        </mxCell>
        <mxCell id="u4I7CA3MxaDfeZdkPv-0-48" value="" style="edgeStyle=orthogonalEdgeStyle;rounded=0;orthogonalLoop=1;jettySize=auto;html=1;fontSize=18;strokeColor=#82b366;exitX=0.5;exitY=1;exitDx=0;exitDy=0;fillColor=#d5e8d4;" edge="1" parent="1" source="u4I7CA3MxaDfeZdkPv-0-52" target="u4I7CA3MxaDfeZdkPv-0-53">
          <mxGeometry relative="1" as="geometry" />
        </mxCell>
        <mxCell id="u4I7CA3MxaDfeZdkPv-0-49" value="同步" style="edgeLabel;html=1;align=center;verticalAlign=middle;resizable=0;points=[];fontSize=18;" vertex="1" connectable="0" parent="u4I7CA3MxaDfeZdkPv-0-48">
          <mxGeometry x="0.0545" relative="1" as="geometry">
            <mxPoint as="offset" />
          </mxGeometry>
        </mxCell>
        <mxCell id="u4I7CA3MxaDfeZdkPv-0-50" value="" style="edgeStyle=orthogonalEdgeStyle;rounded=0;orthogonalLoop=1;jettySize=auto;html=1;fontSize=18;strokeColor=#82b366;fillColor=#d5e8d4;" edge="1" parent="1" source="u4I7CA3MxaDfeZdkPv-0-52" target="u4I7CA3MxaDfeZdkPv-0-54">
          <mxGeometry relative="1" as="geometry" />
        </mxCell>
        <mxCell id="u4I7CA3MxaDfeZdkPv-0-51" value="同步" style="edgeLabel;html=1;align=center;verticalAlign=middle;resizable=0;points=[];fontSize=18;" vertex="1" connectable="0" parent="u4I7CA3MxaDfeZdkPv-0-50">
          <mxGeometry x="-0.0182" y="-6" relative="1" as="geometry">
            <mxPoint y="-6" as="offset" />
          </mxGeometry>
        </mxCell>
        <mxCell id="u4I7CA3MxaDfeZdkPv-0-52" value="&lt;div&gt;&lt;span&gt;Master Broker&lt;/span&gt;&lt;br&gt;&lt;/div&gt;&lt;div&gt;&lt;span&gt;&lt;br&gt;&lt;/span&gt;&lt;/div&gt;&lt;div&gt;&lt;span&gt;&lt;br&gt;&lt;/span&gt;&lt;/div&gt;&lt;div&gt;&lt;span&gt;&lt;br&gt;&lt;/span&gt;&lt;/div&gt;&lt;div&gt;&lt;span&gt;&lt;br&gt;&lt;/span&gt;&lt;/div&gt;&lt;div&gt;&lt;span&gt;&lt;br&gt;&lt;/span&gt;&lt;/div&gt;&lt;div&gt;&lt;span&gt;&lt;br&gt;&lt;/span&gt;&lt;/div&gt;" style="whiteSpace=wrap;html=1;fontSize=18;fillColor=#d5e8d4;strokeWidth=2;fillWeight=-1;hachureGap=8;fillStyle=cross-hatch;sketch=1;strokeColor=#82b366;align=center;" vertex="1" parent="1">
          <mxGeometry x="700" y="1620" width="210" height="170" as="geometry" />
        </mxCell>
        <mxCell id="u4I7CA3MxaDfeZdkPv-0-53" value="&lt;span&gt;Slave Borker&lt;/span&gt;" style="rounded=1;whiteSpace=wrap;html=1;fontSize=18;fillColor=#d5e8d4;strokeColor=#82b366;strokeWidth=2;fillWeight=-1;hachureGap=8;fillStyle=cross-hatch;sketch=1;" vertex="1" parent="1">
          <mxGeometry x="600" y="1890" width="120" height="60" as="geometry" />
        </mxCell>
        <mxCell id="u4I7CA3MxaDfeZdkPv-0-54" value="&lt;span&gt;Slave Borker&lt;/span&gt;" style="rounded=1;whiteSpace=wrap;html=1;fontSize=18;fillColor=#d5e8d4;strokeColor=#82b366;strokeWidth=2;fillWeight=-1;hachureGap=8;fillStyle=cross-hatch;sketch=1;" vertex="1" parent="1">
          <mxGeometry x="910" y="1890" width="120" height="60" as="geometry" />
        </mxCell>
        <mxCell id="u4I7CA3MxaDfeZdkPv-0-55" value="topic(部分数据)&lt;br&gt;&lt;br&gt;&lt;br&gt;&lt;br&gt;&lt;br&gt;" style="rounded=1;whiteSpace=wrap;html=1;strokeWidth=2;fillWeight=4;hachureGap=8;hachureAngle=45;fillColor=#dae8fc;sketch=1;fontSize=18;strokeColor=#6c8ebf;" vertex="1" parent="1">
          <mxGeometry x="711" y="1660" width="190" height="120" as="geometry" />
        </mxCell>
        <mxCell id="u4I7CA3MxaDfeZdkPv-0-56" value="MessageQueue" style="rounded=1;whiteSpace=wrap;html=1;fontSize=18;fillColor=#f8cecc;strokeWidth=2;fillWeight=2;hachureGap=8;fillStyle=dots;sketch=1;strokeColor=#b85450;" vertex="1" parent="1">
          <mxGeometry x="737.5" y="1700" width="135" height="30" as="geometry" />
        </mxCell>
        <mxCell id="u4I7CA3MxaDfeZdkPv-0-57" value="MessageQueue" style="rounded=1;whiteSpace=wrap;html=1;fontSize=18;fillColor=#f8cecc;strokeWidth=2;fillWeight=2;hachureGap=8;fillStyle=dots;sketch=1;strokeColor=#b85450;" vertex="1" parent="1">
          <mxGeometry x="737.5" y="1740" width="135" height="30" as="geometry" />
        </mxCell>
        <mxCell id="u4I7CA3MxaDfeZdkPv-0-58" value="" style="edgeStyle=orthogonalEdgeStyle;rounded=0;orthogonalLoop=1;jettySize=auto;html=1;fontSize=18;strokeColor=#82b366;exitX=0.5;exitY=1;exitDx=0;exitDy=0;fillColor=#d5e8d4;" edge="1" parent="1" source="u4I7CA3MxaDfeZdkPv-0-62" target="u4I7CA3MxaDfeZdkPv-0-63">
          <mxGeometry relative="1" as="geometry" />
        </mxCell>
        <mxCell id="u4I7CA3MxaDfeZdkPv-0-59" value="同步" style="edgeLabel;html=1;align=center;verticalAlign=middle;resizable=0;points=[];fontSize=18;" vertex="1" connectable="0" parent="u4I7CA3MxaDfeZdkPv-0-58">
          <mxGeometry x="0.0545" relative="1" as="geometry">
            <mxPoint as="offset" />
          </mxGeometry>
        </mxCell>
        <mxCell id="u4I7CA3MxaDfeZdkPv-0-60" value="" style="edgeStyle=orthogonalEdgeStyle;rounded=0;orthogonalLoop=1;jettySize=auto;html=1;fontSize=18;strokeColor=#82b366;fillColor=#d5e8d4;" edge="1" parent="1" source="u4I7CA3MxaDfeZdkPv-0-62" target="u4I7CA3MxaDfeZdkPv-0-64">
          <mxGeometry relative="1" as="geometry" />
        </mxCell>
        <mxCell id="u4I7CA3MxaDfeZdkPv-0-61" value="同步" style="edgeLabel;html=1;align=center;verticalAlign=middle;resizable=0;points=[];fontSize=18;" vertex="1" connectable="0" parent="u4I7CA3MxaDfeZdkPv-0-60">
          <mxGeometry x="-0.0182" y="-6" relative="1" as="geometry">
            <mxPoint y="-6" as="offset" />
          </mxGeometry>
        </mxCell>
        <mxCell id="u4I7CA3MxaDfeZdkPv-0-62" value="&lt;div&gt;&lt;span&gt;Master Broker&lt;/span&gt;&lt;br&gt;&lt;/div&gt;&lt;div&gt;&lt;span&gt;&lt;br&gt;&lt;/span&gt;&lt;/div&gt;&lt;div&gt;&lt;span&gt;&lt;br&gt;&lt;/span&gt;&lt;/div&gt;&lt;div&gt;&lt;span&gt;&lt;br&gt;&lt;/span&gt;&lt;/div&gt;&lt;div&gt;&lt;span&gt;&lt;br&gt;&lt;/span&gt;&lt;/div&gt;&lt;div&gt;&lt;span&gt;&lt;br&gt;&lt;/span&gt;&lt;/div&gt;&lt;div&gt;&lt;span&gt;&lt;br&gt;&lt;/span&gt;&lt;/div&gt;" style="whiteSpace=wrap;html=1;fontSize=18;fillColor=#d5e8d4;strokeWidth=2;fillWeight=-1;hachureGap=8;fillStyle=cross-hatch;sketch=1;strokeColor=#82b366;align=center;" vertex="1" parent="1">
          <mxGeometry x="1220" y="1620" width="210" height="170" as="geometry" />
        </mxCell>
        <mxCell id="u4I7CA3MxaDfeZdkPv-0-63" value="&lt;span&gt;Slave Borker&lt;/span&gt;" style="rounded=1;whiteSpace=wrap;html=1;fontSize=18;fillColor=#d5e8d4;strokeColor=#82b366;strokeWidth=2;fillWeight=-1;hachureGap=8;fillStyle=cross-hatch;sketch=1;" vertex="1" parent="1">
          <mxGeometry x="1120" y="1890" width="120" height="60" as="geometry" />
        </mxCell>
        <mxCell id="u4I7CA3MxaDfeZdkPv-0-64" value="&lt;span&gt;Slave Borker&lt;/span&gt;" style="rounded=1;whiteSpace=wrap;html=1;fontSize=18;fillColor=#d5e8d4;strokeColor=#82b366;strokeWidth=2;fillWeight=-1;hachureGap=8;fillStyle=cross-hatch;sketch=1;" vertex="1" parent="1">
          <mxGeometry x="1430" y="1890" width="120" height="60" as="geometry" />
        </mxCell>
        <mxCell id="u4I7CA3MxaDfeZdkPv-0-65" value="topic(部分数据)&lt;br&gt;&lt;br&gt;&lt;br&gt;&lt;br&gt;&lt;br&gt;" style="rounded=1;whiteSpace=wrap;html=1;strokeWidth=2;fillWeight=4;hachureGap=8;hachureAngle=45;fillColor=#dae8fc;sketch=1;fontSize=18;strokeColor=#6c8ebf;" vertex="1" parent="1">
          <mxGeometry x="1231" y="1660" width="190" height="120" as="geometry" />
        </mxCell>
        <mxCell id="u4I7CA3MxaDfeZdkPv-0-66" value="MessageQueue" style="rounded=1;whiteSpace=wrap;html=1;fontSize=18;fillColor=#f8cecc;strokeWidth=2;fillWeight=2;hachureGap=8;fillStyle=dots;sketch=1;strokeColor=#b85450;" vertex="1" parent="1">
          <mxGeometry x="1257.5" y="1700" width="135" height="30" as="geometry" />
        </mxCell>
        <mxCell id="u4I7CA3MxaDfeZdkPv-0-67" value="MessageQueue" style="rounded=1;whiteSpace=wrap;html=1;fontSize=18;fillColor=#f8cecc;strokeWidth=2;fillWeight=2;hachureGap=8;fillStyle=dots;sketch=1;strokeColor=#b85450;" vertex="1" parent="1">
          <mxGeometry x="1257.5" y="1740" width="135" height="30" as="geometry" />
        </mxCell>
        <mxCell id="u4I7CA3MxaDfeZdkPv-0-68" style="edgeStyle=orthogonalEdgeStyle;rounded=0;orthogonalLoop=1;jettySize=auto;html=1;exitX=1;exitY=0.5;exitDx=0;exitDy=0;fontSize=18;strokeColor=#1A1A1A;" edge="1" parent="1" source="u4I7CA3MxaDfeZdkPv-0-71" target="u4I7CA3MxaDfeZdkPv-0-62">
          <mxGeometry relative="1" as="geometry" />
        </mxCell>
        <mxCell id="u4I7CA3MxaDfeZdkPv-0-69" value="均匀写入数据" style="edgeLabel;html=1;align=center;verticalAlign=middle;resizable=0;points=[];fontSize=18;" vertex="1" connectable="0" parent="u4I7CA3MxaDfeZdkPv-0-68">
          <mxGeometry x="-0.3049" y="4" relative="1" as="geometry">
            <mxPoint y="2" as="offset" />
          </mxGeometry>
        </mxCell>
        <mxCell id="u4I7CA3MxaDfeZdkPv-0-70" style="edgeStyle=orthogonalEdgeStyle;rounded=0;orthogonalLoop=1;jettySize=auto;html=1;exitX=0;exitY=0.5;exitDx=0;exitDy=0;fontSize=18;strokeColor=#1A1A1A;" edge="1" parent="1" source="u4I7CA3MxaDfeZdkPv-0-71" target="u4I7CA3MxaDfeZdkPv-0-52">
          <mxGeometry relative="1" as="geometry" />
        </mxCell>
        <mxCell id="u4I7CA3MxaDfeZdkPv-0-71" value="&lt;font style=&quot;font-size: 18px&quot;&gt;&lt;b&gt;生产者&lt;/b&gt;&lt;/font&gt;" style="rounded=1;whiteSpace=wrap;html=1;fillColor=#f8cecc;strokeWidth=2;fillWeight=2;hachureGap=8;fillStyle=dots;sketch=1;strokeColor=#b85450;arcSize=0;" vertex="1" parent="1">
          <mxGeometry x="1000" y="1490" width="120" height="60" as="geometry" />
        </mxCell>
        <mxCell id="u4I7CA3MxaDfeZdkPv-0-72" value="均匀写入数据" style="edgeLabel;html=1;align=center;verticalAlign=middle;resizable=0;points=[];fontSize=18;" vertex="1" connectable="0" parent="1">
          <mxGeometry x="910" y="1520" as="geometry" />
        </mxCell>
        <mxCell id="u4I7CA3MxaDfeZdkPv-0-73" style="edgeStyle=orthogonalEdgeStyle;rounded=0;orthogonalLoop=1;jettySize=auto;html=1;exitX=0.5;exitY=1;exitDx=0;exitDy=0;entryX=0.5;entryY=0;entryDx=0;entryDy=0;fontSize=18;strokeColor=#1A1A1A;" edge="1" parent="1" source="u4I7CA3MxaDfeZdkPv-0-75" target="u4I7CA3MxaDfeZdkPv-0-71">
          <mxGeometry relative="1" as="geometry" />
        </mxCell>
        <mxCell id="u4I7CA3MxaDfeZdkPv-0-74" value="找到所有包含该topic的broker，再给出最合适的brocker的建议" style="edgeLabel;html=1;align=center;verticalAlign=middle;resizable=0;points=[];fontSize=18;" vertex="1" connectable="0" parent="u4I7CA3MxaDfeZdkPv-0-73">
          <mxGeometry x="-0.2" y="6" relative="1" as="geometry">
            <mxPoint as="offset" />
          </mxGeometry>
        </mxCell>
        <mxCell id="u4I7CA3MxaDfeZdkPv-0-75" value="&lt;font style=&quot;font-size: 18px&quot;&gt;nameSever&lt;/font&gt;" style="rounded=1;whiteSpace=wrap;html=1;strokeWidth=2;fillWeight=4;hachureGap=8;hachureAngle=45;fillColor=#dae8fc;sketch=1;strokeColor=#6c8ebf;" vertex="1" parent="1">
          <mxGeometry x="1000" y="1360" width="120" height="60" as="geometry" />
        </mxCell>
      </root>
    </mxGraphModel>
  </diagram>
</mxfile>
